<svg width="34" height="23" viewBox="0 0 34 23" fill="none" xmlns="http://www.w3.org/2000/svg">
<g filter="url(#filter0_d)">
<path d="M19.5403 11.7281C20.4609 11.4384 21.6395 13.6406 22.8943 14.4834C23.836 15.1219 24.5573 14.9841 24.5573 14.9841L27.9017 14.9372C27.9017 14.9372 29.6495 14.8322 28.8232 13.4803C28.7549 13.3678 28.3389 12.4781 26.334 10.6472C24.2376 8.73186 24.5217 9.04218 27.0456 5.73093C28.5835 3.71249 29.1988 2.47968 29.0062 1.95468C28.8213 1.44936 27.6918 1.58061 27.6918 1.58061L23.9237 1.60593C23.5568 1.60686 23.2458 1.71749 23.1042 2.08874C23.1013 2.09249 22.5062 3.65061 21.7127 4.9753C20.0362 7.77749 19.3669 7.92655 19.0896 7.75124C18.4531 7.3453 18.6139 6.1228 18.6139 5.25374C18.6139 2.5378 19.0299 1.4053 17.7992 1.1128C17.388 1.0153 17.0876 0.951552 16.0389 0.942177C14.6985 0.922489 13.5603 0.942177 12.9151 1.25061C12.4866 1.45968 12.1582 1.91811 12.3575 1.94436C12.6079 1.97718 13.1693 2.09436 13.4697 2.49374C13.8559 3.01124 13.8443 4.17093 13.8443 4.17093C13.8443 4.17093 14.0649 7.36874 13.3243 7.7653C12.8159 8.03718 12.1206 7.48218 10.6252 4.9378C9.86153 3.63655 9.28471 2.19843 9.28471 2.19843C9.28471 2.19843 9.17301 1.93124 8.97079 1.78499C8.73005 1.61155 8.39301 1.55624 8.39301 1.55624L4.81656 1.57874C4.81656 1.57874 4.27923 1.59374 4.08182 1.82436C3.90656 2.02874 4.06738 2.45061 4.06738 2.45061C4.06738 2.45061 6.86864 8.90155 10.0406 12.1509C12.9488 15.1341 16.2537 14.9362 16.2537 14.9362H17.7511C17.7511 14.9362 18.2027 14.8856 18.4338 14.6437C18.6495 14.4187 18.6399 13.9959 18.6399 13.9959C18.6399 13.9959 18.61 12.0187 19.5403 11.7281Z" fill="white"/>
</g>
<defs>
<filter id="filter0_d" x="0" y="0" width="34" height="23" filterUnits="userSpaceOnUse" color-interpolation-filters="sRGB">
<feFlood flood-opacity="0" result="BackgroundImageFix"/>
<feColorMatrix in="SourceAlpha" type="matrix" values="0 0 0 0 0 0 0 0 0 0 0 0 0 0 0 0 0 0 127 0"/>
<feOffset dy="4"/>
<feGaussianBlur stdDeviation="2"/>
<feColorMatrix type="matrix" values="0 0 0 0 0 0 0 0 0 0 0 0 0 0 0 0 0 0 0.25 0"/>
<feBlend mode="normal" in2="BackgroundImageFix" result="effect1_dropShadow"/>
<feBlend mode="normal" in="SourceGraphic" in2="effect1_dropShadow" result="shape"/>
</filter>
</defs>
</svg>
